M48
; DRILL file {KiCad (5.1.10)-1} date 11/06/21 15:15:08
; FORMAT={-:-/ absolute / inch / decimal}
; #@! TF.CreationDate,2021-11-06T15:15:08-06:00
; #@! TF.GenerationSoftware,Kicad,Pcbnew,(5.1.10)-1
; #@! TF.FileFunction,Plated,1,2,PTH
FMAT,2
INCH
T1C0.0315
T2C0.0394
T3C0.0472
%
G90
G05
T1
X4.2Y-3.6
X4.2Y-3.7
X4.45Y-3.6
X4.45Y-3.7
X4.75Y-2.6
X4.75Y-3.05
X4.85Y-2.6
X4.85Y-3.05
X4.95Y-2.6
X4.95Y-3.05
X5.05Y-2.6
X5.05Y-3.05
X5.05Y-4.05
X5.05Y-4.15
X5.05Y-4.25
X5.05Y-4.35
X5.05Y-4.45
X5.05Y-4.55
X5.05Y-4.65
X5.05Y-4.75
X5.05Y-4.85
X5.05Y-4.95
X5.05Y-5.25
X5.05Y-5.35
X5.05Y-5.45
X5.05Y-5.55
X5.05Y-5.65
X5.05Y-5.75
X5.05Y-5.85
X5.05Y-5.95
X5.05Y-6.05
X5.05Y-6.15
X5.15Y-2.6
X5.15Y-3.05
X5.25Y-2.6
X5.25Y-3.05
X5.35Y-2.6
X5.35Y-3.05
X5.35Y-4.05
X5.35Y-4.15
X5.35Y-4.25
X5.35Y-4.35
X5.35Y-4.45
X5.35Y-4.55
X5.35Y-4.65
X5.35Y-4.75
X5.35Y-4.85
X5.35Y-4.95
X5.35Y-5.25
X5.35Y-5.35
X5.35Y-5.45
X5.35Y-5.55
X5.35Y-5.65
X5.35Y-5.75
X5.35Y-5.85
X5.35Y-5.95
X5.35Y-6.05
X5.35Y-6.15
X5.45Y-2.6
X5.45Y-3.05
X5.55Y-2.6
X5.55Y-3.05
X5.55Y-4.2
X5.55Y-5.4
X5.65Y-2.6
X5.65Y-3.05
X5.65Y-4.2
X5.65Y-5.4
T2
X4.15Y-4.0
X4.25Y-2.8831
X4.25Y-4.0
X4.35Y-2.8831
X4.4Y-2.55
X4.5Y-2.55
X4.85Y-5.55
X4.85Y-5.65
X4.85Y-5.75
X4.85Y-5.85
X4.85Y-6.6
X4.9Y-4.35
X4.9Y-4.45
X4.9Y-4.55
X4.9Y-4.65
X4.95Y-1.1
X4.95Y-2.0
X4.95Y-6.6
X5.05Y-1.1
X5.05Y-2.0
X5.05Y-6.6
X5.15Y-1.1
X5.15Y-2.0
X5.15Y-6.6
X5.25Y-1.1
X5.25Y-2.0
X5.25Y-6.6
X5.35Y-1.1
X5.35Y-2.0
X5.35Y-6.6
X5.45Y-1.1
X5.45Y-2.0
X5.45Y-6.6
X5.55Y-1.1
X5.55Y-2.0
X5.55Y-6.6
X5.65Y-1.1
X5.65Y-2.0
X5.65Y-4.35
X5.65Y-4.45
X5.65Y-4.55
X5.65Y-4.65
X5.65Y-5.55
X5.65Y-5.65
X5.65Y-5.75
X5.65Y-5.85
T3
X4.35Y-3.25
X4.4319Y-3.45
X4.55Y-3.25
T0
M30
