%TF.GenerationSoftware,KiCad,Pcbnew,(5.1.10)-1*%
%TF.CreationDate,2021-11-06T15:15:10-06:00*%
%TF.ProjectId,12v_7-SegmentTriColor_Controller,3132765f-372d-4536-9567-6d656e745472,rev?*%
%TF.SameCoordinates,Original*%
%TF.FileFunction,Copper,L1,Top*%
%TF.FilePolarity,Positive*%
%FSLAX46Y46*%
G04 Gerber Fmt 4.6, Leading zero omitted, Abs format (unit mm)*
G04 Created by KiCad (PCBNEW (5.1.10)-1) date 2021-11-06 15:15:10*
%MOMM*%
%LPD*%
G01*
G04 APERTURE LIST*
%TA.AperFunction,ComponentPad*%
%ADD10O,1.700000X1.700000*%
%TD*%
%TA.AperFunction,ComponentPad*%
%ADD11R,1.700000X1.700000*%
%TD*%
%TA.AperFunction,ComponentPad*%
%ADD12O,1.200000X2.000000*%
%TD*%
%TA.AperFunction,ComponentPad*%
%ADD13O,1.600000X1.600000*%
%TD*%
%TA.AperFunction,ComponentPad*%
%ADD14C,1.600000*%
%TD*%
%TA.AperFunction,ComponentPad*%
%ADD15C,2.250000*%
%TD*%
%TA.AperFunction,ComponentPad*%
%ADD16R,2.250000X2.250000*%
%TD*%
%TA.AperFunction,ComponentPad*%
%ADD17R,1.600000X1.600000*%
%TD*%
%TA.AperFunction,ComponentPad*%
%ADD18O,1.600000X2.000000*%
%TD*%
%TA.AperFunction,ComponentPad*%
%ADD19R,2.000000X2.000000*%
%TD*%
%TA.AperFunction,Conductor*%
%ADD20C,0.250000*%
%TD*%
G04 APERTURE END LIST*
D10*
%TO.P,UBEC_Buck_12v1,2*%
%TO.N,Net-(12v_0-Pad2)*%
X107950000Y-73230000D03*
D11*
%TO.P,UBEC_Buck_12v1,1*%
%TO.N,Net-(12v_0-Pad1)*%
X110490000Y-73230000D03*
%TD*%
D10*
%TO.P,UBEC_Buck5v1,2*%
%TO.N,Net-(12v_0-Pad2)*%
X111760000Y-64770000D03*
D11*
%TO.P,UBEC_Buck5v1,1*%
%TO.N,Net-(ESP8266_0-Pad9)*%
X114300000Y-64770000D03*
%TD*%
D12*
%TO.P,LevelShifter0,10*%
%TO.N,Net-(ESP8266_0-Pad13)*%
X120650000Y-66040000D03*
%TO.P,LevelShifter0,11*%
%TO.N,Net-(12v_0-Pad2)*%
X120650000Y-77470000D03*
%TO.P,LevelShifter0,9*%
%TO.N,Net-(LevelShifter0-Pad9)*%
X123190000Y-66040000D03*
%TO.P,LevelShifter0,12*%
%TO.N,Net-(LevelShifter0-Pad12)*%
X123190000Y-77470000D03*
%TO.P,LevelShifter0,8*%
%TO.N,Net-(LevelShifter0-Pad8)*%
X125730000Y-66040000D03*
%TO.P,LevelShifter0,13*%
%TO.N,Net-(LevelShifter0-Pad13)*%
X125730000Y-77470000D03*
%TO.P,LevelShifter0,7*%
%TO.N,Net-(LevelShifter0-Pad7)*%
X128270000Y-66040000D03*
%TO.P,LevelShifter0,14*%
%TO.N,Net-(LevelShifter0-Pad14)*%
X128270000Y-77470000D03*
%TO.P,LevelShifter0,6*%
%TO.N,Net-(ESP8266_0-Pad12)*%
X130810000Y-66040000D03*
%TO.P,LevelShifter0,15*%
%TO.N,Net-(LevelShifter0-Pad15)*%
X130810000Y-77470000D03*
%TO.P,LevelShifter0,5*%
%TO.N,Net-(ESP8266_0-Pad4)*%
X133350000Y-66040000D03*
%TO.P,LevelShifter0,16*%
%TO.N,Net-(ExtensionPins0-Pad5)*%
X133350000Y-77470000D03*
%TO.P,LevelShifter0,4*%
%TO.N,Net-(ESP8266_0-Pad5)*%
X135890000Y-66040000D03*
%TO.P,LevelShifter0,17*%
%TO.N,Net-(ExtensionPins0-Pad4)*%
X135890000Y-77470000D03*
%TO.P,LevelShifter0,3*%
%TO.N,Net-(ESP8266_0-Pad6)*%
X138430000Y-66040000D03*
%TO.P,LevelShifter0,18*%
%TO.N,Net-(ExtensionPins0-Pad6)*%
X138430000Y-77470000D03*
%TO.P,LevelShifter0,1*%
%TO.N,Net-(ESP8266_0-Pad7)*%
X140970000Y-66040000D03*
%TO.P,LevelShifter0,20*%
%TO.N,Net-(ExtensionPins0-Pad7)*%
X140970000Y-77470000D03*
%TO.P,LevelShifter0,2*%
%TO.N,Net-(ESP8266_0-Pad8)*%
X143510000Y-66040000D03*
%TO.P,LevelShifter0,19*%
%TO.N,Net-(ESP8266_0-Pad9)*%
X143510000Y-77470000D03*
%TD*%
D10*
%TO.P,12v_To-7-Segment0,2*%
%TO.N,Net-(12v_To-7-Segment0-Pad2)*%
X107950000Y-101600000D03*
D11*
%TO.P,12v_To-7-Segment0,1*%
%TO.N,Net-(12v_To-7-Segment0-Pad1)*%
X105410000Y-101600000D03*
%TD*%
D13*
%TO.P,Res1,2*%
%TO.N,Net-(12v_0-Pad1)*%
X106680000Y-91440000D03*
D14*
%TO.P,Res1,1*%
%TO.N,Net-(12v_To-7-Segment0-Pad1)*%
X106680000Y-93980000D03*
%TD*%
D15*
%TO.P,12v_0,3*%
%TO.N,N/C*%
X112570000Y-87630000D03*
%TO.P,12v_0,2*%
%TO.N,Net-(12v_0-Pad2)*%
X110490000Y-82550000D03*
D16*
%TO.P,12v_0,1*%
%TO.N,Net-(12v_0-Pad1)*%
X115570000Y-82550000D03*
%TD*%
D10*
%TO.P,To_7-Segment_Red1,4*%
%TO.N,Net-(Res2-Pad1)*%
X143510000Y-110490000D03*
%TO.P,To_7-Segment_Red1,3*%
%TO.N,Net-(ShiftRegister0-Pad16)*%
X143510000Y-113030000D03*
%TO.P,To_7-Segment_Red1,2*%
%TO.N,Net-(ShiftRegister0-Pad15)*%
X143510000Y-115570000D03*
D11*
%TO.P,To_7-Segment_Red1,1*%
%TO.N,Net-(ShiftRegister0-Pad14)*%
X143510000Y-118110000D03*
%TD*%
D10*
%TO.P,To_7-Segment_Red0,4*%
%TO.N,Net-(ShiftRegister0-Pad7)*%
X124460000Y-118110000D03*
%TO.P,To_7-Segment_Red0,3*%
%TO.N,Net-(ShiftRegister0-Pad6)*%
X124460000Y-115570000D03*
%TO.P,To_7-Segment_Red0,2*%
%TO.N,Net-(ShiftRegister0-Pad5)*%
X124460000Y-113030000D03*
D11*
%TO.P,To_7-Segment_Red0,1*%
%TO.N,Net-(ShiftRegister0-Pad4)*%
X124460000Y-110490000D03*
%TD*%
D10*
%TO.P,To_7-Segment_Green1,4*%
%TO.N,Net-(Res3-Pad1)*%
X143510000Y-140970000D03*
%TO.P,To_7-Segment_Green1,3*%
%TO.N,Net-(ShiftRegister1-Pad16)*%
X143510000Y-143510000D03*
%TO.P,To_7-Segment_Green1,2*%
%TO.N,Net-(ShiftRegister1-Pad15)*%
X143510000Y-146050000D03*
D11*
%TO.P,To_7-Segment_Green1,1*%
%TO.N,Net-(ShiftRegister1-Pad14)*%
X143510000Y-148590000D03*
%TD*%
D10*
%TO.P,To_7-Segment_Green0,4*%
%TO.N,Net-(ShiftRegister1-Pad7)*%
X123190000Y-148590000D03*
%TO.P,To_7-Segment_Green0,3*%
%TO.N,Net-(ShiftRegister1-Pad6)*%
X123190000Y-146050000D03*
%TO.P,To_7-Segment_Green0,2*%
%TO.N,Net-(ShiftRegister1-Pad5)*%
X123190000Y-143510000D03*
D11*
%TO.P,To_7-Segment_Green0,1*%
%TO.N,Net-(ShiftRegister1-Pad4)*%
X123190000Y-140970000D03*
%TD*%
D13*
%TO.P,ShiftRegister1,20*%
%TO.N,Net-(12v_0-Pad2)*%
X135890000Y-133350000D03*
%TO.P,ShiftRegister1,10*%
X128270000Y-156210000D03*
%TO.P,ShiftRegister1,19*%
X135890000Y-135890000D03*
%TO.P,ShiftRegister1,9*%
%TO.N,Net-(ExtensionPins0-Pad4)*%
X128270000Y-153670000D03*
%TO.P,ShiftRegister1,18*%
%TO.N,Net-(ExtensionPins0-Pad8)*%
X135890000Y-138430000D03*
%TO.P,ShiftRegister1,8*%
%TO.N,Net-(ExtensionPins0-Pad5)*%
X128270000Y-151130000D03*
%TO.P,ShiftRegister1,17*%
%TO.N,Net-(Res3-Pad2)*%
X135890000Y-140970000D03*
%TO.P,ShiftRegister1,7*%
%TO.N,Net-(ShiftRegister1-Pad7)*%
X128270000Y-148590000D03*
%TO.P,ShiftRegister1,16*%
%TO.N,Net-(ShiftRegister1-Pad16)*%
X135890000Y-143510000D03*
%TO.P,ShiftRegister1,6*%
%TO.N,Net-(ShiftRegister1-Pad6)*%
X128270000Y-146050000D03*
%TO.P,ShiftRegister1,15*%
%TO.N,Net-(ShiftRegister1-Pad15)*%
X135890000Y-146050000D03*
%TO.P,ShiftRegister1,5*%
%TO.N,Net-(ShiftRegister1-Pad5)*%
X128270000Y-143510000D03*
%TO.P,ShiftRegister1,14*%
%TO.N,Net-(ShiftRegister1-Pad14)*%
X135890000Y-148590000D03*
%TO.P,ShiftRegister1,4*%
%TO.N,Net-(ShiftRegister1-Pad4)*%
X128270000Y-140970000D03*
%TO.P,ShiftRegister1,13*%
%TO.N,Net-(ExtensionPins0-Pad7)*%
X135890000Y-151130000D03*
%TO.P,ShiftRegister1,3*%
%TO.N,Net-(ShiftRegister0-Pad18)*%
X128270000Y-138430000D03*
%TO.P,ShiftRegister1,12*%
%TO.N,Net-(ExtensionPins0-Pad6)*%
X135890000Y-153670000D03*
%TO.P,ShiftRegister1,2*%
%TO.N,Net-(ESP8266_0-Pad9)*%
X128270000Y-135890000D03*
%TO.P,ShiftRegister1,11*%
%TO.N,Net-(12v_0-Pad2)*%
X135890000Y-156210000D03*
D17*
%TO.P,ShiftRegister1,1*%
X128270000Y-133350000D03*
%TD*%
D13*
%TO.P,ShiftRegister0,20*%
%TO.N,Net-(12v_0-Pad2)*%
X135890000Y-102870000D03*
%TO.P,ShiftRegister0,10*%
X128270000Y-125730000D03*
%TO.P,ShiftRegister0,19*%
X135890000Y-105410000D03*
%TO.P,ShiftRegister0,9*%
%TO.N,Net-(ExtensionPins0-Pad4)*%
X128270000Y-123190000D03*
%TO.P,ShiftRegister0,18*%
%TO.N,Net-(ShiftRegister0-Pad18)*%
X135890000Y-107950000D03*
%TO.P,ShiftRegister0,8*%
%TO.N,Net-(ExtensionPins0-Pad5)*%
X128270000Y-120650000D03*
%TO.P,ShiftRegister0,17*%
%TO.N,Net-(Res2-Pad2)*%
X135890000Y-110490000D03*
%TO.P,ShiftRegister0,7*%
%TO.N,Net-(ShiftRegister0-Pad7)*%
X128270000Y-118110000D03*
%TO.P,ShiftRegister0,16*%
%TO.N,Net-(ShiftRegister0-Pad16)*%
X135890000Y-113030000D03*
%TO.P,ShiftRegister0,6*%
%TO.N,Net-(ShiftRegister0-Pad6)*%
X128270000Y-115570000D03*
%TO.P,ShiftRegister0,15*%
%TO.N,Net-(ShiftRegister0-Pad15)*%
X135890000Y-115570000D03*
%TO.P,ShiftRegister0,5*%
%TO.N,Net-(ShiftRegister0-Pad5)*%
X128270000Y-113030000D03*
%TO.P,ShiftRegister0,14*%
%TO.N,Net-(ShiftRegister0-Pad14)*%
X135890000Y-118110000D03*
%TO.P,ShiftRegister0,4*%
%TO.N,Net-(ShiftRegister0-Pad4)*%
X128270000Y-110490000D03*
%TO.P,ShiftRegister0,13*%
%TO.N,Net-(ExtensionPins0-Pad7)*%
X135890000Y-120650000D03*
%TO.P,ShiftRegister0,3*%
%TO.N,Net-(LevelShifter0-Pad15)*%
X128270000Y-107950000D03*
%TO.P,ShiftRegister0,12*%
%TO.N,Net-(ExtensionPins0-Pad6)*%
X135890000Y-123190000D03*
%TO.P,ShiftRegister0,2*%
%TO.N,Net-(ESP8266_0-Pad9)*%
X128270000Y-105410000D03*
%TO.P,ShiftRegister0,11*%
%TO.N,Net-(12v_0-Pad2)*%
X135890000Y-125730000D03*
D17*
%TO.P,ShiftRegister0,1*%
X128270000Y-102870000D03*
%TD*%
D13*
%TO.P,Res3,2*%
%TO.N,Net-(Res3-Pad2)*%
X140970000Y-137160000D03*
D14*
%TO.P,Res3,1*%
%TO.N,Net-(Res3-Pad1)*%
X143510000Y-137160000D03*
%TD*%
D13*
%TO.P,Res2,2*%
%TO.N,Net-(Res2-Pad2)*%
X140970000Y-106680000D03*
D14*
%TO.P,Res2,1*%
%TO.N,Net-(Res2-Pad1)*%
X143510000Y-106680000D03*
%TD*%
D13*
%TO.P,Res0,2*%
%TO.N,Net-(12v_0-Pad1)*%
X113030000Y-91440000D03*
D14*
%TO.P,Res0,1*%
%TO.N,Net-(12v_To-7-Segment0-Pad2)*%
X113030000Y-93980000D03*
%TD*%
D10*
%TO.P,ExtensionPins0,8*%
%TO.N,Net-(ExtensionPins0-Pad8)*%
X140970000Y-167640000D03*
%TO.P,ExtensionPins0,7*%
%TO.N,Net-(ExtensionPins0-Pad7)*%
X138430000Y-167640000D03*
%TO.P,ExtensionPins0,6*%
%TO.N,Net-(ExtensionPins0-Pad6)*%
X135890000Y-167640000D03*
%TO.P,ExtensionPins0,5*%
%TO.N,Net-(ExtensionPins0-Pad5)*%
X133350000Y-167640000D03*
%TO.P,ExtensionPins0,4*%
%TO.N,Net-(ExtensionPins0-Pad4)*%
X130810000Y-167640000D03*
%TO.P,ExtensionPins0,3*%
%TO.N,Net-(12v_0-Pad2)*%
X128270000Y-167640000D03*
%TO.P,ExtensionPins0,2*%
%TO.N,Net-(ESP8266_0-Pad9)*%
X125730000Y-167640000D03*
D11*
%TO.P,ExtensionPins0,1*%
%TO.N,Net-(12v_0-Pad1)*%
X123190000Y-167640000D03*
%TD*%
D18*
%TO.P,ESP8266_0,16*%
%TO.N,Net-(ESP8266_0-Pad16)*%
X125730000Y-27940000D03*
%TO.P,ESP8266_0,15*%
%TO.N,Net-(ESP8266_0-Pad15)*%
X128270000Y-27940000D03*
%TO.P,ESP8266_0,14*%
%TO.N,Net-(ESP8266_0-Pad14)*%
X130810000Y-27940000D03*
%TO.P,ESP8266_0,13*%
%TO.N,Net-(ESP8266_0-Pad13)*%
X133350000Y-27940000D03*
%TO.P,ESP8266_0,12*%
%TO.N,Net-(ESP8266_0-Pad12)*%
X135890000Y-27940000D03*
%TO.P,ESP8266_0,11*%
%TO.N,Net-(ESP8266_0-Pad11)*%
X138430000Y-27940000D03*
%TO.P,ESP8266_0,10*%
%TO.N,Net-(12v_0-Pad2)*%
X140970000Y-27940000D03*
%TO.P,ESP8266_0,9*%
%TO.N,Net-(ESP8266_0-Pad9)*%
X143510000Y-27940000D03*
%TO.P,ESP8266_0,8*%
%TO.N,Net-(ESP8266_0-Pad8)*%
X143510000Y-50800000D03*
%TO.P,ESP8266_0,7*%
%TO.N,Net-(ESP8266_0-Pad7)*%
X140970000Y-50800000D03*
%TO.P,ESP8266_0,6*%
%TO.N,Net-(ESP8266_0-Pad6)*%
X138430000Y-50800000D03*
%TO.P,ESP8266_0,5*%
%TO.N,Net-(ESP8266_0-Pad5)*%
X135890000Y-50800000D03*
%TO.P,ESP8266_0,4*%
%TO.N,Net-(ESP8266_0-Pad4)*%
X133350000Y-50800000D03*
%TO.P,ESP8266_0,3*%
%TO.N,Net-(ESP8266_0-Pad3)*%
X130810000Y-50800000D03*
D19*
%TO.P,ESP8266_0,1*%
%TO.N,Net-(ESP8266_0-Pad1)*%
X125730000Y-50800000D03*
D18*
%TO.P,ESP8266_0,2*%
%TO.N,Net-(ESP8266_0-Pad2)*%
X128270000Y-50800000D03*
%TD*%
D20*
%TO.N,Net-(Res2-Pad2)*%
X137160000Y-110490000D02*
X140970000Y-106680000D01*
X135890000Y-110490000D02*
X137160000Y-110490000D01*
%TO.N,Net-(Res2-Pad1)*%
X143510000Y-106680000D02*
X143510000Y-110490000D01*
%TO.N,Net-(ShiftRegister1-Pad7)*%
X123190000Y-148590000D02*
X128270000Y-148590000D01*
%TO.N,Net-(ShiftRegister1-Pad16)*%
X135890000Y-143510000D02*
X143510000Y-143510000D01*
%TO.N,Net-(ShiftRegister1-Pad6)*%
X123190000Y-146050000D02*
X128270000Y-146050000D01*
%TO.N,Net-(ShiftRegister1-Pad15)*%
X135890000Y-146050000D02*
X143510000Y-146050000D01*
%TO.N,Net-(ShiftRegister1-Pad5)*%
X123190000Y-143510000D02*
X128270000Y-143510000D01*
%TO.N,Net-(ShiftRegister1-Pad14)*%
X135890000Y-148590000D02*
X143510000Y-148590000D01*
%TO.N,Net-(ShiftRegister1-Pad4)*%
X123190000Y-140970000D02*
X128270000Y-140970000D01*
%TO.N,Net-(12v_0-Pad2)*%
X120650000Y-95250000D02*
X128270000Y-102870000D01*
X120650000Y-76200000D02*
X120650000Y-95250000D01*
X128270000Y-102870000D02*
X135890000Y-102870000D01*
X135890000Y-102870000D02*
X135890000Y-105410000D01*
X128270000Y-156210000D02*
X128270000Y-167640000D01*
X128270000Y-125730000D02*
X135890000Y-125730000D01*
X128270000Y-133350000D02*
X135890000Y-133350000D01*
X135890000Y-133350000D02*
X135890000Y-135890000D01*
X134764999Y-155084999D02*
X135890000Y-156210000D01*
X134764999Y-137015001D02*
X134764999Y-155084999D01*
X135890000Y-135890000D02*
X134764999Y-137015001D01*
X144780000Y-125730000D02*
X135890000Y-125730000D01*
X147320000Y-123190000D02*
X144780000Y-125730000D01*
X147320000Y-106680000D02*
X147320000Y-123190000D01*
X146050000Y-105410000D02*
X147320000Y-106680000D01*
X135890000Y-105410000D02*
X146050000Y-105410000D01*
X135890000Y-125730000D02*
X135890000Y-133350000D01*
X123190000Y-73660000D02*
X120650000Y-76200000D01*
X142240000Y-73660000D02*
X123190000Y-73660000D01*
X140970000Y-27940000D02*
X149860000Y-36830000D01*
X149860000Y-36830000D02*
X149860000Y-64770000D01*
X149860000Y-64770000D02*
X149860000Y-66040000D01*
X149860000Y-66040000D02*
X142240000Y-73660000D01*
X116840000Y-76200000D02*
X110490000Y-82550000D01*
X120650000Y-76200000D02*
X116840000Y-76200000D01*
X109220000Y-64770000D02*
X111760000Y-64770000D01*
X107950000Y-66040000D02*
X109220000Y-64770000D01*
X110490000Y-75770000D02*
X107950000Y-73230000D01*
X110490000Y-82550000D02*
X110490000Y-75770000D01*
X107950000Y-73230000D02*
X107950000Y-66040000D01*
%TO.N,Net-(12v_0-Pad1)*%
X115570000Y-82550000D02*
X115570000Y-88900000D01*
X115570000Y-88900000D02*
X113030000Y-91440000D01*
X110490000Y-154940000D02*
X123190000Y-167640000D01*
X110490000Y-104140000D02*
X110490000Y-154940000D01*
X115570000Y-99060000D02*
X110490000Y-104140000D01*
X115570000Y-88900000D02*
X115570000Y-99060000D01*
X113030000Y-91440000D02*
X106680000Y-91440000D01*
%TO.N,Net-(ESP8266_0-Pad13)*%
X116840000Y-44450000D02*
X133350000Y-27940000D01*
X116840000Y-62230000D02*
X116840000Y-44450000D01*
X120650000Y-66040000D02*
X116840000Y-62230000D01*
%TO.N,Net-(ESP8266_0-Pad12)*%
X120650000Y-43180000D02*
X135890000Y-27940000D01*
X120650000Y-55880000D02*
X120650000Y-43180000D01*
X130810000Y-66040000D02*
X120650000Y-55880000D01*
%TO.N,Net-(ESP8266_0-Pad8)*%
X143510000Y-50800000D02*
X143510000Y-66040000D01*
%TO.N,Net-(ESP8266_0-Pad7)*%
X140970000Y-50800000D02*
X140970000Y-66040000D01*
%TO.N,Net-(ESP8266_0-Pad6)*%
X138430000Y-50800000D02*
X138430000Y-66040000D01*
%TO.N,Net-(ESP8266_0-Pad5)*%
X135890000Y-50800000D02*
X135890000Y-66040000D01*
%TO.N,Net-(ESP8266_0-Pad4)*%
X133350000Y-50800000D02*
X133350000Y-66040000D01*
%TO.N,Net-(ExtensionPins0-Pad7)*%
X138430000Y-153670000D02*
X138430000Y-167640000D01*
X135890000Y-151130000D02*
X138430000Y-153670000D01*
%TO.N,Net-(ExtensionPins0-Pad6)*%
X137015001Y-154795001D02*
X137015001Y-158894999D01*
X135890000Y-153670000D02*
X137015001Y-154795001D01*
X135890000Y-160020000D02*
X135890000Y-167640000D01*
X137015001Y-158894999D02*
X135890000Y-160020000D01*
%TO.N,Net-(ExtensionPins0-Pad5)*%
X133350000Y-156210000D02*
X133350000Y-167640000D01*
X128270000Y-151130000D02*
X133350000Y-156210000D01*
%TO.N,Net-(ExtensionPins0-Pad4)*%
X130810000Y-156210000D02*
X130810000Y-167640000D01*
X128270000Y-153670000D02*
X130810000Y-156210000D01*
%TO.N,Net-(ShiftRegister0-Pad18)*%
X134764999Y-106824999D02*
X121775001Y-106824999D01*
X135890000Y-107950000D02*
X134764999Y-106824999D01*
X121775001Y-106824999D02*
X114300000Y-114300000D01*
X114300000Y-114300000D02*
X114300000Y-133350000D01*
X119380000Y-138430000D02*
X128270000Y-138430000D01*
X114300000Y-133350000D02*
X119380000Y-138430000D01*
%TO.N,Net-(ShiftRegister0-Pad7)*%
X128270000Y-118110000D02*
X124460000Y-118110000D01*
%TO.N,Net-(ShiftRegister0-Pad16)*%
X135890000Y-113030000D02*
X143510000Y-113030000D01*
%TO.N,Net-(ShiftRegister0-Pad6)*%
X128270000Y-115570000D02*
X124460000Y-115570000D01*
%TO.N,Net-(ShiftRegister0-Pad15)*%
X135890000Y-115570000D02*
X143510000Y-115570000D01*
%TO.N,Net-(ShiftRegister0-Pad5)*%
X128270000Y-113030000D02*
X124460000Y-113030000D01*
%TO.N,Net-(ShiftRegister0-Pad14)*%
X135890000Y-118110000D02*
X143510000Y-118110000D01*
%TO.N,Net-(ShiftRegister0-Pad4)*%
X128270000Y-110490000D02*
X124460000Y-110490000D01*
%TO.N,Net-(Res3-Pad2)*%
X137160000Y-140970000D02*
X140970000Y-137160000D01*
X135890000Y-140970000D02*
X137160000Y-140970000D01*
%TO.N,Net-(Res3-Pad1)*%
X143510000Y-137160000D02*
X143510000Y-140970000D01*
%TO.N,Net-(12v_To-7-Segment0-Pad2)*%
X113030000Y-96520000D02*
X107950000Y-101600000D01*
X113030000Y-93980000D02*
X113030000Y-96520000D01*
%TO.N,Net-(12v_To-7-Segment0-Pad1)*%
X106680000Y-93980000D02*
X106680000Y-96520000D01*
X106680000Y-96520000D02*
X105410000Y-97790000D01*
X105410000Y-97790000D02*
X105410000Y-101600000D01*
%TD*%
M02*
