%TF.GenerationSoftware,KiCad,Pcbnew,(5.1.10)-1*%
%TF.CreationDate,2021-11-06T15:24:40-06:00*%
%TF.ProjectId,12v_7-SegmentTriColor_LED_Breakout,3132765f-372d-4536-9567-6d656e745472,rev?*%
%TF.SameCoordinates,Original*%
%TF.FileFunction,Copper,L2,Bot*%
%TF.FilePolarity,Positive*%
%FSLAX46Y46*%
G04 Gerber Fmt 4.6, Leading zero omitted, Abs format (unit mm)*
G04 Created by KiCad (PCBNEW (5.1.10)-1) date 2021-11-06 15:24:40*
%MOMM*%
%LPD*%
G01*
G04 APERTURE LIST*
%TA.AperFunction,ComponentPad*%
%ADD10O,1.700000X1.700000*%
%TD*%
%TA.AperFunction,ComponentPad*%
%ADD11R,1.700000X1.700000*%
%TD*%
%TA.AperFunction,ComponentPad*%
%ADD12O,1.400000X1.400000*%
%TD*%
%TA.AperFunction,ComponentPad*%
%ADD13C,1.400000*%
%TD*%
%TA.AperFunction,ComponentPad*%
%ADD14O,1.600000X1.600000*%
%TD*%
%TA.AperFunction,ComponentPad*%
%ADD15R,1.600000X1.600000*%
%TD*%
%TA.AperFunction,ViaPad*%
%ADD16C,0.800000*%
%TD*%
%TA.AperFunction,Conductor*%
%ADD17C,0.250000*%
%TD*%
G04 APERTURE END LIST*
D10*
%TO.P,In0,8*%
%TO.N,Net-(In0-Pad8)*%
X96520000Y-76200000D03*
%TO.P,In0,7*%
%TO.N,Net-(In0-Pad7)*%
X96520000Y-78740000D03*
%TO.P,In0,6*%
%TO.N,Net-(In0-Pad6)*%
X96520000Y-81280000D03*
%TO.P,In0,5*%
%TO.N,Net-(In0-Pad5)*%
X96520000Y-83820000D03*
%TO.P,In0,4*%
%TO.N,Net-(In0-Pad4)*%
X96520000Y-86360000D03*
%TO.P,In0,3*%
%TO.N,Net-(In0-Pad3)*%
X96520000Y-88900000D03*
%TO.P,In0,2*%
%TO.N,Net-(In0-Pad2)*%
X96520000Y-91440000D03*
D11*
%TO.P,In0,1*%
%TO.N,Net-(In0-Pad1)*%
X96520000Y-93980000D03*
%TD*%
D12*
%TO.P,RedRes0,2*%
%TO.N,Net-(12v_R0-Pad1)*%
X96520000Y-105410000D03*
D13*
%TO.P,RedRes0,1*%
%TO.N,Net-(In0-Pad1)*%
X96520000Y-100330000D03*
%TD*%
D11*
%TO.P,Red0,1*%
%TO.N,Net-(Red0-Pad1)*%
X80010000Y-78740000D03*
%TD*%
D12*
%TO.P,Res1,2*%
%TO.N,Net-(12v_G0-Pad1)*%
X177800000Y-77470000D03*
D13*
%TO.P,Res1,1*%
%TO.N,Net-(In0-Pad1)*%
X177800000Y-82550000D03*
%TD*%
D14*
%TO.P,ShiftRegister0,20*%
%TO.N,Net-(In0-Pad3)*%
X105410000Y-82550000D03*
%TO.P,ShiftRegister0,10*%
X128270000Y-90170000D03*
%TO.P,ShiftRegister0,19*%
X107950000Y-82550000D03*
%TO.P,ShiftRegister0,9*%
%TO.N,Net-(In0-Pad4)*%
X125730000Y-90170000D03*
%TO.P,ShiftRegister0,18*%
%TO.N,Net-(ShiftRegister0-Pad18)*%
X110490000Y-82550000D03*
%TO.P,ShiftRegister0,8*%
%TO.N,Net-(In0-Pad5)*%
X123190000Y-90170000D03*
%TO.P,ShiftRegister0,17*%
%TO.N,Net-(DotRes0-Pad2)*%
X113030000Y-82550000D03*
%TO.P,ShiftRegister0,7*%
%TO.N,Net-(Red3-Pad1)*%
X120650000Y-90170000D03*
%TO.P,ShiftRegister0,16*%
%TO.N,Net-(Red6-Pad1)*%
X115570000Y-82550000D03*
%TO.P,ShiftRegister0,6*%
%TO.N,Net-(Red2-Pad1)*%
X118110000Y-90170000D03*
%TO.P,ShiftRegister0,15*%
%TO.N,Net-(Red5-Pad1)*%
X118110000Y-82550000D03*
%TO.P,ShiftRegister0,5*%
%TO.N,Net-(Red1-Pad1)*%
X115570000Y-90170000D03*
%TO.P,ShiftRegister0,14*%
%TO.N,Net-(Red4-Pad1)*%
X120650000Y-82550000D03*
%TO.P,ShiftRegister0,4*%
%TO.N,Net-(Red0-Pad1)*%
X113030000Y-90170000D03*
%TO.P,ShiftRegister0,13*%
%TO.N,Net-(In0-Pad7)*%
X123190000Y-82550000D03*
%TO.P,ShiftRegister0,3*%
%TO.N,Net-(In0-Pad8)*%
X110490000Y-90170000D03*
%TO.P,ShiftRegister0,12*%
%TO.N,Net-(In0-Pad6)*%
X125730000Y-82550000D03*
%TO.P,ShiftRegister0,2*%
%TO.N,Net-(In0-Pad2)*%
X107950000Y-90170000D03*
%TO.P,ShiftRegister0,11*%
%TO.N,Net-(In0-Pad3)*%
X128270000Y-82550000D03*
D15*
%TO.P,ShiftRegister0,1*%
X105410000Y-90170000D03*
%TD*%
D10*
%TO.P,SR_Pins3,4*%
%TO.N,Net-(DotRes1-Pad1)*%
X144780000Y-68580000D03*
%TO.P,SR_Pins3,3*%
%TO.N,Net-(Green6-Pad1)*%
X147320000Y-68580000D03*
%TO.P,SR_Pins3,2*%
%TO.N,Net-(Green5-Pad1)*%
X149860000Y-68580000D03*
D11*
%TO.P,SR_Pins3,1*%
%TO.N,Net-(Green4-Pad1)*%
X152400000Y-68580000D03*
%TD*%
D10*
%TO.P,SR_Pins2,4*%
%TO.N,Net-(Green3-Pad1)*%
X152400000Y-101600000D03*
%TO.P,SR_Pins2,3*%
%TO.N,Net-(Green2-Pad1)*%
X149860000Y-101600000D03*
%TO.P,SR_Pins2,2*%
%TO.N,Net-(Green1-Pad1)*%
X147320000Y-101600000D03*
D11*
%TO.P,SR_Pins2,1*%
%TO.N,Net-(Green0-Pad1)*%
X144780000Y-101600000D03*
%TD*%
D10*
%TO.P,SR_Pins1,4*%
%TO.N,Net-(DotRes0-Pad1)*%
X113030000Y-68580000D03*
%TO.P,SR_Pins1,3*%
%TO.N,Net-(Red6-Pad1)*%
X115570000Y-68580000D03*
%TO.P,SR_Pins1,2*%
%TO.N,Net-(Red5-Pad1)*%
X118110000Y-68580000D03*
D11*
%TO.P,SR_Pins1,1*%
%TO.N,Net-(Red4-Pad1)*%
X120650000Y-68580000D03*
%TD*%
D10*
%TO.P,SR_Pins0,4*%
%TO.N,Net-(Red3-Pad1)*%
X120650000Y-101600000D03*
%TO.P,SR_Pins0,3*%
%TO.N,Net-(Red2-Pad1)*%
X118110000Y-101600000D03*
%TO.P,SR_Pins0,2*%
%TO.N,Net-(Red1-Pad1)*%
X115570000Y-101600000D03*
D11*
%TO.P,SR_Pins0,1*%
%TO.N,Net-(Red0-Pad1)*%
X113030000Y-101600000D03*
%TD*%
D14*
%TO.P,ShiftRegister1,20*%
%TO.N,Net-(In0-Pad3)*%
X137160000Y-82550000D03*
%TO.P,ShiftRegister1,10*%
X160020000Y-90170000D03*
%TO.P,ShiftRegister1,19*%
X139700000Y-82550000D03*
%TO.P,ShiftRegister1,9*%
%TO.N,Net-(In0-Pad4)*%
X157480000Y-90170000D03*
%TO.P,ShiftRegister1,18*%
%TO.N,Net-(Out0-Pad8)*%
X142240000Y-82550000D03*
%TO.P,ShiftRegister1,8*%
%TO.N,Net-(In0-Pad5)*%
X154940000Y-90170000D03*
%TO.P,ShiftRegister1,17*%
%TO.N,Net-(DotRes1-Pad2)*%
X144780000Y-82550000D03*
%TO.P,ShiftRegister1,7*%
%TO.N,Net-(Green3-Pad1)*%
X152400000Y-90170000D03*
%TO.P,ShiftRegister1,16*%
%TO.N,Net-(Green6-Pad1)*%
X147320000Y-82550000D03*
%TO.P,ShiftRegister1,6*%
%TO.N,Net-(Green2-Pad1)*%
X149860000Y-90170000D03*
%TO.P,ShiftRegister1,15*%
%TO.N,Net-(Green5-Pad1)*%
X149860000Y-82550000D03*
%TO.P,ShiftRegister1,5*%
%TO.N,Net-(Green1-Pad1)*%
X147320000Y-90170000D03*
%TO.P,ShiftRegister1,14*%
%TO.N,Net-(Green4-Pad1)*%
X152400000Y-82550000D03*
%TO.P,ShiftRegister1,4*%
%TO.N,Net-(Green0-Pad1)*%
X144780000Y-90170000D03*
%TO.P,ShiftRegister1,13*%
%TO.N,Net-(In0-Pad7)*%
X154940000Y-82550000D03*
%TO.P,ShiftRegister1,3*%
%TO.N,Net-(ShiftRegister0-Pad18)*%
X142240000Y-90170000D03*
%TO.P,ShiftRegister1,12*%
%TO.N,Net-(In0-Pad6)*%
X157480000Y-82550000D03*
%TO.P,ShiftRegister1,2*%
%TO.N,Net-(In0-Pad2)*%
X139700000Y-90170000D03*
%TO.P,ShiftRegister1,11*%
%TO.N,Net-(In0-Pad3)*%
X160020000Y-82550000D03*
D15*
%TO.P,ShiftRegister1,1*%
X137160000Y-90170000D03*
%TD*%
D10*
%TO.P,Out0,8*%
%TO.N,Net-(Out0-Pad8)*%
X170180000Y-77470000D03*
%TO.P,Out0,7*%
%TO.N,Net-(In0-Pad7)*%
X170180000Y-80010000D03*
%TO.P,Out0,6*%
%TO.N,Net-(In0-Pad6)*%
X170180000Y-82550000D03*
%TO.P,Out0,5*%
%TO.N,Net-(In0-Pad5)*%
X170180000Y-85090000D03*
%TO.P,Out0,4*%
%TO.N,Net-(In0-Pad4)*%
X170180000Y-87630000D03*
%TO.P,Out0,3*%
%TO.N,Net-(In0-Pad3)*%
X170180000Y-90170000D03*
%TO.P,Out0,2*%
%TO.N,Net-(In0-Pad2)*%
X170180000Y-92710000D03*
D11*
%TO.P,Out0,1*%
%TO.N,Net-(In0-Pad1)*%
X170180000Y-95250000D03*
%TD*%
%TO.P,Red7,1*%
%TO.N,Net-(DotRes0-Pad1)*%
X187960000Y-92710000D03*
%TD*%
%TO.P,Red6,1*%
%TO.N,Net-(Red6-Pad1)*%
X187960000Y-82550000D03*
%TD*%
%TO.P,Red5,1*%
%TO.N,Net-(Red5-Pad1)*%
X187960000Y-67310000D03*
%TD*%
%TO.P,Red4,1*%
%TO.N,Net-(Red4-Pad1)*%
X187960000Y-57150000D03*
%TD*%
%TO.P,Red3,1*%
%TO.N,Net-(Red3-Pad1)*%
X80010000Y-113030000D03*
%TD*%
%TO.P,Red2,1*%
%TO.N,Net-(Red2-Pad1)*%
X80010000Y-102870000D03*
%TD*%
%TO.P,Red1,1*%
%TO.N,Net-(Red1-Pad1)*%
X80010000Y-92710000D03*
%TD*%
%TO.P,Green7,1*%
%TO.N,Net-(DotRes1-Pad1)*%
X187960000Y-97790000D03*
%TD*%
%TO.P,Green6,1*%
%TO.N,Net-(Green6-Pad1)*%
X187960000Y-87630000D03*
%TD*%
%TO.P,Green5,1*%
%TO.N,Net-(Green5-Pad1)*%
X187960000Y-72390000D03*
%TD*%
%TO.P,Green4,1*%
%TO.N,Net-(Green4-Pad1)*%
X187960000Y-62230000D03*
%TD*%
%TO.P,Green3,1*%
%TO.N,Net-(Green3-Pad1)*%
X80010000Y-118110000D03*
%TD*%
%TO.P,Green2,1*%
%TO.N,Net-(Green2-Pad1)*%
X80010000Y-97790000D03*
%TD*%
%TO.P,Green1,1*%
%TO.N,Net-(Green1-Pad1)*%
X80010000Y-87630000D03*
%TD*%
%TO.P,Green0,1*%
%TO.N,Net-(Green0-Pad1)*%
X80010000Y-82550000D03*
%TD*%
%TO.P,12v_R0,1*%
%TO.N,Net-(12v_R0-Pad1)*%
X80010000Y-107950000D03*
%TD*%
%TO.P,12v_G0,1*%
%TO.N,Net-(12v_G0-Pad1)*%
X187960000Y-77470000D03*
%TD*%
D12*
%TO.P,DotRes1,2*%
%TO.N,Net-(DotRes1-Pad2)*%
X144780000Y-78740000D03*
D13*
%TO.P,DotRes1,1*%
%TO.N,Net-(DotRes1-Pad1)*%
X144780000Y-73660000D03*
%TD*%
D12*
%TO.P,DotRes0,2*%
%TO.N,Net-(DotRes0-Pad2)*%
X113030000Y-78740000D03*
D13*
%TO.P,DotRes0,1*%
%TO.N,Net-(DotRes0-Pad1)*%
X113030000Y-73660000D03*
%TD*%
D16*
%TO.N,Net-(In0-Pad2)*%
X139700000Y-93980000D03*
%TO.N,Net-(ShiftRegister0-Pad18)*%
X132080000Y-81280000D03*
X132080000Y-91440000D03*
%TD*%
D17*
%TO.N,Net-(DotRes0-Pad1)*%
X180340000Y-85090000D02*
X187960000Y-92710000D01*
X180340000Y-71120000D02*
X180340000Y-85090000D01*
X138430000Y-64770000D02*
X173990000Y-64770000D01*
X173990000Y-64770000D02*
X180340000Y-71120000D01*
X113030000Y-68580000D02*
X118110000Y-73660000D01*
X129540000Y-73660000D02*
X138430000Y-64770000D01*
X118110000Y-73660000D02*
X129540000Y-73660000D01*
%TO.N,Net-(DotRes1-Pad2)*%
X144780000Y-78740000D02*
X144780000Y-82550000D01*
%TO.N,Net-(DotRes1-Pad1)*%
X144780000Y-68580000D02*
X144780000Y-73660000D01*
%TO.N,Net-(In0-Pad7)*%
X96520000Y-78740000D02*
X102870000Y-85090000D01*
X102870000Y-85090000D02*
X120650000Y-85090000D01*
X120650000Y-85090000D02*
X123190000Y-82550000D01*
X157480000Y-80010000D02*
X170180000Y-80010000D01*
X154940000Y-82550000D02*
X157480000Y-80010000D01*
%TO.N,Net-(In0-Pad6)*%
X96520000Y-81280000D02*
X101600000Y-86360000D01*
X101600000Y-86360000D02*
X121920000Y-86360000D01*
X121920000Y-86360000D02*
X125730000Y-82550000D01*
X125730000Y-82550000D02*
X128270000Y-85090000D01*
X154940000Y-85090000D02*
X157480000Y-82550000D01*
X128270000Y-85090000D02*
X154940000Y-85090000D01*
X158605001Y-83675001D02*
X161434999Y-83675001D01*
X157480000Y-82550000D02*
X158605001Y-83675001D01*
X162560000Y-82550000D02*
X170180000Y-82550000D01*
X161434999Y-83675001D02*
X162560000Y-82550000D01*
%TO.N,Net-(In0-Pad5)*%
X120650000Y-87630000D02*
X123190000Y-90170000D01*
X100330000Y-87630000D02*
X120650000Y-87630000D01*
X96520000Y-83820000D02*
X100330000Y-87630000D01*
X123190000Y-90170000D02*
X125730000Y-87630000D01*
X152400000Y-87630000D02*
X154940000Y-90170000D01*
X125730000Y-87630000D02*
X152400000Y-87630000D01*
X160020000Y-85090000D02*
X170180000Y-85090000D01*
X154940000Y-90170000D02*
X160020000Y-85090000D01*
%TO.N,Net-(In0-Pad4)*%
X96520000Y-86360000D02*
X102870000Y-92710000D01*
X102870000Y-92710000D02*
X123190000Y-92710000D01*
X123190000Y-92710000D02*
X125730000Y-90170000D01*
X125730000Y-90170000D02*
X128270000Y-92710000D01*
X128270000Y-92710000D02*
X154940000Y-92710000D01*
X154940000Y-92710000D02*
X157480000Y-90170000D01*
X157480000Y-90170000D02*
X160020000Y-87630000D01*
X160020000Y-87630000D02*
X170180000Y-87630000D01*
%TO.N,Net-(In0-Pad3)*%
X105410000Y-82550000D02*
X107950000Y-82550000D01*
X128270000Y-82550000D02*
X137160000Y-82550000D01*
%TO.N,Net-(In0-Pad2)*%
X139700000Y-93980000D02*
X157480000Y-93980000D01*
X158750000Y-92710000D02*
X170180000Y-92710000D01*
X157480000Y-93980000D02*
X158750000Y-92710000D01*
%TO.N,Net-(In0-Pad1)*%
X170180000Y-95250000D02*
X175260000Y-95250000D01*
X177800000Y-92710000D02*
X177800000Y-82550000D01*
X175260000Y-95250000D02*
X177800000Y-92710000D01*
X96520000Y-93980000D02*
X97790000Y-93980000D01*
X97790000Y-93980000D02*
X99060000Y-95250000D01*
X99060000Y-95250000D02*
X170180000Y-95250000D01*
%TO.N,Net-(Out0-Pad8)*%
X158750000Y-66040000D02*
X170180000Y-77470000D01*
X143510000Y-66040000D02*
X158750000Y-66040000D01*
X142240000Y-67310000D02*
X143510000Y-66040000D01*
X142240000Y-82550000D02*
X142240000Y-67310000D01*
%TO.N,Net-(ShiftRegister0-Pad18)*%
X140970000Y-91440000D02*
X142240000Y-90170000D01*
X132080000Y-91440000D02*
X140970000Y-91440000D01*
X111760000Y-81280000D02*
X132080000Y-81280000D01*
X110490000Y-82550000D02*
X111760000Y-81280000D01*
%TO.N,Net-(Green4-Pad1)*%
X152400000Y-68580000D02*
X152400000Y-82550000D01*
%TO.N,Net-(Green5-Pad1)*%
X149860000Y-68580000D02*
X149860000Y-82550000D01*
%TO.N,Net-(Green6-Pad1)*%
X147320000Y-68580000D02*
X147320000Y-82550000D01*
%TO.N,Net-(Red0-Pad1)*%
X92710000Y-81280000D02*
X90170000Y-78740000D01*
X92710000Y-81280000D02*
X92710000Y-95250000D01*
X92710000Y-95250000D02*
X95250000Y-97790000D01*
X95250000Y-97790000D02*
X109220000Y-97790000D01*
X109220000Y-97790000D02*
X113030000Y-101600000D01*
X90170000Y-78740000D02*
X80010000Y-78740000D01*
%TO.N,Net-(Red1-Pad1)*%
X115570000Y-101600000D02*
X115570000Y-102870000D01*
X115570000Y-102870000D02*
X114300000Y-104140000D01*
X114300000Y-104140000D02*
X111760000Y-104140000D01*
X111760000Y-104140000D02*
X106680000Y-99060000D01*
X106680000Y-99060000D02*
X93980000Y-99060000D01*
X93980000Y-99060000D02*
X91440000Y-96520000D01*
X91440000Y-96520000D02*
X91440000Y-93980000D01*
X91440000Y-93980000D02*
X90170000Y-92710000D01*
X90170000Y-92710000D02*
X80010000Y-92710000D01*
%TO.N,Net-(Red2-Pad1)*%
X118110000Y-101600000D02*
X118110000Y-102870000D01*
X118110000Y-102870000D02*
X115570000Y-105410000D01*
X115570000Y-105410000D02*
X107950000Y-105410000D01*
X107950000Y-105410000D02*
X105410000Y-102870000D01*
X105410000Y-102870000D02*
X80010000Y-102870000D01*
%TO.N,Net-(Red3-Pad1)*%
X120650000Y-101600000D02*
X120650000Y-106680000D01*
X120650000Y-106680000D02*
X114300000Y-113030000D01*
X114300000Y-113030000D02*
X80010000Y-113030000D01*
%TO.N,Net-(Red4-Pad1)*%
X133350000Y-60960000D02*
X175260000Y-60960000D01*
X179070000Y-57150000D02*
X187960000Y-57150000D01*
X175260000Y-60960000D02*
X179070000Y-57150000D01*
X125730000Y-68580000D02*
X133350000Y-60960000D01*
X120650000Y-68580000D02*
X125730000Y-68580000D01*
%TO.N,Net-(Red5-Pad1)*%
X135890000Y-62230000D02*
X175260000Y-62230000D01*
X180340000Y-67310000D02*
X187960000Y-67310000D01*
X175260000Y-62230000D02*
X180340000Y-67310000D01*
X118110000Y-68580000D02*
X120650000Y-71120000D01*
X127000000Y-71120000D02*
X135890000Y-62230000D01*
X120650000Y-71120000D02*
X127000000Y-71120000D01*
%TO.N,Net-(Red6-Pad1)*%
X181610000Y-76200000D02*
X187960000Y-82550000D01*
X181610000Y-69850000D02*
X181610000Y-76200000D01*
X137160000Y-63500000D02*
X175260000Y-63500000D01*
X175260000Y-63500000D02*
X181610000Y-69850000D01*
X115570000Y-68580000D02*
X119380000Y-72390000D01*
X119380000Y-72390000D02*
X128270000Y-72390000D01*
X128270000Y-72390000D02*
X137160000Y-63500000D01*
%TO.N,Net-(12v_R0-Pad1)*%
X96520000Y-105410000D02*
X93980000Y-107950000D01*
X93980000Y-107950000D02*
X80010000Y-107950000D01*
%TD*%
M02*
