M48
; DRILL file {KiCad (5.1.10)-1} date 11/06/21 15:24:38
; FORMAT={-:-/ absolute / inch / decimal}
; #@! TF.CreationDate,2021-11-06T15:24:38-06:00
; #@! TF.GenerationSoftware,Kicad,Pcbnew,(5.1.10)-1
; #@! TF.FileFunction,Plated,1,2,PTH
FMAT,2
INCH
T1C0.0157
T2C0.0276
T3C0.0315
T4C0.0394
%
G90
G05
T1
X5.2Y-3.2
X5.2Y-3.6
X5.5Y-3.7
T2
X3.8Y-3.95
X3.8Y-4.15
X4.45Y-2.9
X4.45Y-3.1
X5.7Y-2.9
X5.7Y-3.1
X7.0Y-3.05
X7.0Y-3.25
T3
X4.15Y-3.25
X4.15Y-3.55
X4.25Y-3.25
X4.25Y-3.55
X4.35Y-3.25
X4.35Y-3.55
X4.45Y-3.25
X4.45Y-3.55
X4.55Y-3.25
X4.55Y-3.55
X4.65Y-3.25
X4.65Y-3.55
X4.75Y-3.25
X4.75Y-3.55
X4.85Y-3.25
X4.85Y-3.55
X4.95Y-3.25
X4.95Y-3.55
X5.05Y-3.25
X5.05Y-3.55
X5.4Y-3.25
X5.4Y-3.55
X5.5Y-3.25
X5.5Y-3.55
X5.6Y-3.25
X5.6Y-3.55
X5.7Y-3.25
X5.7Y-3.55
X5.8Y-3.25
X5.8Y-3.55
X5.9Y-3.25
X5.9Y-3.55
X6.0Y-3.25
X6.0Y-3.55
X6.1Y-3.25
X6.1Y-3.55
X6.2Y-3.25
X6.2Y-3.55
X6.3Y-3.25
X6.3Y-3.55
T4
X3.15Y-3.1
X3.15Y-3.25
X3.15Y-3.45
X3.15Y-3.65
X3.15Y-3.85
X3.15Y-4.05
X3.15Y-4.25
X3.15Y-4.45
X3.15Y-4.65
X3.8Y-3.0
X3.8Y-3.1
X3.8Y-3.2
X3.8Y-3.3
X3.8Y-3.4
X3.8Y-3.5
X3.8Y-3.6
X3.8Y-3.7
X4.45Y-2.7
X4.45Y-4.0
X4.55Y-2.7
X4.55Y-4.0
X4.65Y-2.7
X4.65Y-4.0
X4.75Y-2.7
X4.75Y-4.0
X5.7Y-2.7
X5.7Y-4.0
X5.8Y-2.7
X5.8Y-4.0
X5.9Y-2.7
X5.9Y-4.0
X6.0Y-2.7
X6.0Y-4.0
X6.7Y-3.05
X6.7Y-3.15
X6.7Y-3.25
X6.7Y-3.35
X6.7Y-3.45
X6.7Y-3.55
X6.7Y-3.65
X6.7Y-3.75
X7.4Y-2.25
X7.4Y-2.45
X7.4Y-2.65
X7.4Y-2.85
X7.4Y-3.05
X7.4Y-3.25
X7.4Y-3.45
X7.4Y-3.65
X7.4Y-3.85
T0
M30
